<svg width="12" height="12" viewBox="0 0 12 12" fill="none" xmlns="http://www.w3.org/2000/svg">
    <path d="M9.13793 3.71154C8.82709 3.15793 8.42041 2.73627 7.91807 2.44604C7.41556 2.15634 6.87344 2.01122 6.29191 2.01122C5.70983 2.01122 5.16771 2.15292 4.66556 2.4363C4.16286 2.71987 3.75618 3.13503 3.44571 3.68197C3.13487 4.22892 2.97972 4.87825 2.97972 5.62944C2.97972 6.38081 3.13487 7.04007 3.44571 7.60666C3.75618 8.17361 4.1663 8.60518 4.67532 8.90173C5.18435 9.19827 5.72321 9.34664 6.29191 9.34664C6.87344 9.34664 7.41556 9.2017 7.91807 8.91182C8.42041 8.62176 8.82709 8.19687 9.13793 7.63622C9.4484 7.0763 9.60391 6.42029 9.60391 5.66892C9.60391 4.91755 9.4484 4.26515 9.13793 3.71154ZM1.34342 2.72293C1.79947 1.87944 2.42097 1.22362 3.20774 0.755634C3.99433 0.28783 4.86374 0.0536575 5.81579 0.0536575C6.67508 0.0536575 7.42532 0.221851 8.06689 0.557877C8.7081 0.894082 9.22038 1.31267 9.60391 1.81347V0.231586H11.8849V11.1263H9.60391V9.50491C9.22038 10.0189 8.69816 10.4474 8.03724 10.7901C7.37578 11.1328 6.62209 11.3042 5.77619 11.3042C4.83716 11.3042 3.97788 11.0637 3.19779 10.5824C2.41753 10.1014 1.79947 9.4292 1.34342 8.5657C0.887201 7.70256 0.65918 6.72369 0.65918 5.62944C0.65918 4.53538 0.887201 3.5666 1.34342 2.72293Z" fill="#005260"/>
</svg>
