<svg width="26" height="25" viewBox="0 0 26 25" fill="none" xmlns="http://www.w3.org/2000/svg">
    <path d="M17.559 11.22C19.3373 11.4635 20.9763 10.2192 21.2198 8.4409C21.4632 6.66257 20.219 5.02356 18.4407 4.78009C16.6623 4.53661 15.0233 5.78086 14.7798 7.55919C14.5364 9.33753 15.7806 10.9765 17.559 11.22Z" fill="#33CBC2"/>
    <path d="M22.7375 4.40343L22.8254 4.33673M18.8072 2.10303L18.8137 2.05548M23.9444 8.8139L23.8968 8.80739M14.4033 3.26236L14.3366 3.1745M21.6631 12.8255L21.5964 12.7377" stroke="#33CBC2" stroke-width="1.5" stroke-linecap="round" stroke-linejoin="round"/>
    <path d="M21.53 16.93C21.37 16.66 20.92 16.24 19.8 16.44C19.18 16.55 18.55 16.6 17.92 16.57C15.59 16.47 13.48 15.4 12.01 13.75C10.71 12.3 9.90995 10.41 9.89995 8.36999C9.89995 7.22999 10.12 6.12999 10.57 5.08999C11.01 4.07999 10.7 3.54999 10.48 3.32999C10.25 3.09999 9.70995 2.77999 8.64995 3.21999C4.55995 4.93999 2.02995 9.03999 2.32995 13.43C2.62995 17.56 5.52995 21.09 9.36995 22.42C10.29 22.74 11.26 22.93 12.26 22.97C12.42 22.98 12.58 22.99 12.74 22.99C16.09 22.99 19.23 21.41 21.21 18.72C21.88 17.79 21.7 17.2 21.53 16.93Z" fill="#33CBC2"/>
</svg>
