<svg width="24" height="24" viewBox="0 0 24 24" fill="none" xmlns="http://www.w3.org/2000/svg">
    <path d="M20.6668 5.49996V18.5C20.6668 21.75 20.1252 22.8333 17.4168 22.8333H6.5835C3.87516 22.8333 3.3335 21.75 3.3335 18.5V5.49996C3.3335 2.24996 3.87516 1.16663 6.5835 1.16663H17.4168C20.1252 1.16663 20.6668 2.24996 20.6668 5.49996Z" fill="#33CBC2"/>
    <path d="M15.2918 18.5H8.7085C8.43235 18.5 8.2085 18.2762 8.2085 18V8.24752C8.2085 8.05338 8.32053 7.87617 8.48882 7.77938C9.0538 7.45446 10.3526 6.59092 11.2586 5.08636C11.524 4.64556 12.4763 4.64556 12.7417 5.08636C13.6477 6.59092 14.9465 7.45446 15.5115 7.77938C15.6798 7.87617 15.7918 8.05338 15.7918 8.24752V18C15.7918 18.2762 15.568 18.5 15.2918 18.5Z" stroke="white" stroke-width="1.5"/>
</svg>
