<svg width="12" height="16" viewBox="0 0 12 16" fill="none" xmlns="http://www.w3.org/2000/svg">
    <path d="M9.23309 7.68197C8.92225 7.13503 8.51232 6.71987 8.00329 6.4363C7.49445 6.15309 6.94872 6.01122 6.36718 6.01122C5.79848 6.01122 5.25944 6.15634 4.75078 6.44622C4.24157 6.73627 3.83164 7.15793 3.52116 7.71154C3.21032 8.26515 3.05499 8.91755 3.05499 9.66892C3.05499 10.4203 3.21032 11.0763 3.52116 11.6364C3.83164 12.1969 4.24157 12.6218 4.75078 12.9118C5.25944 13.2017 5.79848 13.3466 6.36718 13.3466C6.94872 13.3466 7.49445 13.1985 8.00329 12.9017C8.51232 12.6054 8.92225 12.1736 9.23309 11.6067C9.54357 11.0401 9.69926 10.3808 9.69926 9.62944C9.69926 8.87825 9.54357 8.22892 9.23309 7.68197ZM4.63197 4.55788C5.2994 4.22185 6.04296 4.05366 6.863 4.05366C7.82807 4.05366 8.70074 4.2844 9.481 4.74572C10.2611 5.20721 10.8759 5.86286 11.3256 6.71302C11.775 7.56336 11.9999 8.53538 11.9999 9.62944C11.9999 10.7237 11.775 11.7026 11.3256 12.5657C10.8759 13.4292 10.2576 14.1014 9.47106 14.5824C8.68428 15.0637 7.81505 15.3042 6.863 15.3042C6.01674 15.3042 5.26649 15.1391 4.6119 14.8099C3.95731 14.4805 3.43834 14.0585 3.05499 13.5444V15.1263H0.793945V0.494564H3.05499V5.85294C3.43834 5.32601 3.964 4.89408 4.63197 4.55788Z" fill="#005260"/>
</svg>
