<svg width="25" height="24" viewBox="0 0 25 24" fill="none" xmlns="http://www.w3.org/2000/svg">
    <path d="M2.03009 12.42C2.39009 17.57 6.76009 21.76 11.9901 21.99C15.6801 22.15 18.9801 20.43 20.9601 17.72C21.7801 16.61 21.3401 15.87 19.9701 16.12C19.3001 16.24 18.6101 16.29 17.8901 16.26C13.0001 16.06 9.00009 11.97 8.98009 7.13996C8.97009 5.83996 9.24009 4.60996 9.73009 3.48996C10.2701 2.24996 9.62009 1.65996 8.37009 2.18996C4.41009 3.85996 1.70009 7.84996 2.03009 12.42Z" stroke="#1A1A1A" stroke-width="1.5" stroke-linecap="round" stroke-linejoin="round"/>
    <path d="M17.559 10.22C19.3373 10.4635 20.9763 9.21924 21.2198 7.4409C21.4632 5.66257 20.219 4.02356 18.4407 3.78009C16.6623 3.53661 15.0233 4.78086 14.7798 6.55919C14.5364 8.33753 15.7806 9.97653 17.559 10.22Z" stroke="#1A1A1A" stroke-width="1.5" stroke-linecap="round" stroke-linejoin="round"/>
    <path d="M22.7375 3.40343L22.8254 3.33673M18.8072 1.10303L18.8137 1.05548M23.9444 7.8139L23.8968 7.80739M14.4033 2.26236L14.3366 2.1745M21.6631 11.8255L21.5964 11.7377" stroke="#1A1A1A" stroke-width="1.5" stroke-linecap="round" stroke-linejoin="round"/>
</svg>
