<svg width="24" height="24" viewBox="0 0 24 24" fill="none" xmlns="http://www.w3.org/2000/svg">
    <path d="M20.6666 5.49996V18.5C20.6666 21.75 20.1249 22.8333 17.4166 22.8333H6.58325C3.87492 22.8333 3.33325 21.75 3.33325 18.5V5.49996C3.33325 2.24996 3.87492 1.16663 6.58325 1.16663H17.4166C20.1249 1.16663 20.6666 2.24996 20.6666 5.49996Z" stroke="#1A1A1A" stroke-width="1.5" stroke-miterlimit="10" stroke-linecap="round" stroke-linejoin="round"/>
    <path d="M15.2916 18.5H8.70825C8.43211 18.5 8.20825 18.2762 8.20825 18V8.24752C8.20825 8.05338 8.32029 7.87617 8.48858 7.77938C9.05356 7.45446 10.3523 6.59092 11.2584 5.08636C11.5238 4.64556 12.476 4.64556 12.7415 5.08636C13.6475 6.59092 14.9463 7.45446 15.5113 7.77938C15.6795 7.87617 15.7916 8.05338 15.7916 8.24752V18C15.7916 18.2762 15.5677 18.5 15.2916 18.5Z" stroke="#1A1A1A" stroke-width="1.5"/>
</svg>
