<svg width="10" height="12" viewBox="0 0 10 12" fill="none" xmlns="http://www.w3.org/2000/svg">
    <path d="M2.51575 10.8395C1.83458 10.5299 1.2959 10.1079 0.899347 9.57396C0.502615 9.04035 0.291049 8.44402 0.264648 7.78477H2.6049C2.64468 8.24626 2.86601 8.63186 3.26925 8.94139C3.67249 9.25109 4.17826 9.40594 4.78656 9.40594C5.42126 9.40594 5.91383 9.28426 6.26409 9.04035C6.61435 8.79645 6.78975 8.4835 6.78975 8.10114C6.78975 7.69265 6.59464 7.38907 6.2046 7.19149C5.81456 6.99374 5.19631 6.77633 4.35041 6.53909C3.53036 6.31502 2.86276 6.09743 2.34704 5.88651C1.8315 5.67577 1.38523 5.35273 1.00839 4.91755C0.631544 4.48256 0.443124 3.9093 0.443124 3.19741C0.443124 2.61765 0.614727 2.08712 0.958839 1.60579C1.30259 1.12483 1.79498 0.745719 2.43637 0.469003C3.07758 0.192106 3.8148 0.0536575 4.64787 0.0536575C5.8905 0.0536575 6.8921 0.36697 7.65247 0.992871C8.41266 1.61913 8.81934 2.47272 8.87232 3.55344H6.61128C6.57167 3.06581 6.37331 2.67696 6.01618 2.38673C5.65923 2.09703 5.17642 1.95191 4.56849 1.95191C3.97357 1.95191 3.51734 2.06404 3.2 2.28794C2.88265 2.5122 2.72388 2.80892 2.72388 3.17776C2.72388 3.46763 2.82966 3.71154 3.04123 3.9093C3.25262 4.10687 3.51047 4.26209 3.8148 4.37404C4.11877 4.48616 4.56849 4.62786 5.1634 4.79894C5.95669 5.01003 6.60784 5.22419 7.11705 5.4416C7.62589 5.65919 8.06566 5.97881 8.43599 6.40064C8.80596 6.82266 8.99782 7.38276 9.01102 8.08113C9.01102 8.70108 8.83905 9.2547 8.49548 9.74215C8.15155 10.23 7.66549 10.6121 7.03766 10.8889C6.40947 11.1658 5.67225 11.3042 4.82634 11.3042C3.96652 11.3042 3.19656 11.1492 2.51575 10.8395Z" fill="#005260"/>
</svg>
